<mxfile host="app.diagrams.net" modified="2023-07-18T12:38:43.534Z" agent="Mozilla/5.0 (X11; Linux x86_64) AppleWebKit/537.36 (KHTML, like Gecko) Chrome/114.0.0.0 Safari/537.36" etag="rFyRWc55qWYZlq1Ao34s" version="21.6.2" type="github">
  <diagram name="Страница 1" id="bvX_ZbflLbPiQNvNuWSi">
    <mxGraphModel dx="1125" dy="608" grid="1" gridSize="10" guides="1" tooltips="1" connect="1" arrows="1" fold="1" page="1" pageScale="1" pageWidth="3000" pageHeight="4000" math="0" shadow="0">
      <root>
        <mxCell id="0" />
        <mxCell id="1" parent="0" />
        <mxCell id="cmEz1sKrKSyV9okYz4DI-6" value="" style="rounded=0;whiteSpace=wrap;html=1;dashed=1;dashPattern=12 12;" vertex="1" parent="1">
          <mxGeometry x="680" y="540" width="160" height="120" as="geometry" />
        </mxCell>
        <mxCell id="cmEz1sKrKSyV9okYz4DI-1" value="" style="rounded=0;whiteSpace=wrap;html=1;dashed=1;dashPattern=12 12;" vertex="1" parent="1">
          <mxGeometry x="400" y="540" width="160" height="120" as="geometry" />
        </mxCell>
        <mxCell id="zF1l7xySwPQQmZNrOh1o-1" value="QEMU" style="rounded=0;whiteSpace=wrap;html=1;" parent="1" vertex="1">
          <mxGeometry x="440" y="560" width="80" height="80" as="geometry" />
        </mxCell>
        <mxCell id="cmEz1sKrKSyV9okYz4DI-2" value="ВМ Пользователя/Серверная ВМ(процесс qemu-kvm)" style="text;html=1;strokeColor=none;fillColor=none;align=center;verticalAlign=middle;whiteSpace=wrap;rounded=0;" vertex="1" parent="1">
          <mxGeometry x="390" y="660" width="180" height="40" as="geometry" />
        </mxCell>
        <mxCell id="cmEz1sKrKSyV9okYz4DI-3" value="" style="endArrow=classic;html=1;rounded=0;exitX=1;exitY=0.5;exitDx=0;exitDy=0;" edge="1" parent="1" source="zF1l7xySwPQQmZNrOh1o-1">
          <mxGeometry width="50" height="50" relative="1" as="geometry">
            <mxPoint x="530" y="670" as="sourcePoint" />
            <mxPoint x="720" y="600" as="targetPoint" />
          </mxGeometry>
        </mxCell>
        <mxCell id="cmEz1sKrKSyV9okYz4DI-4" value="Remote-viewer" style="rounded=0;whiteSpace=wrap;html=1;" vertex="1" parent="1">
          <mxGeometry x="720" y="560" width="80" height="80" as="geometry" />
        </mxCell>
        <mxCell id="cmEz1sKrKSyV9okYz4DI-7" value="Терминальный клиент" style="text;html=1;strokeColor=none;fillColor=none;align=center;verticalAlign=middle;whiteSpace=wrap;rounded=0;" vertex="1" parent="1">
          <mxGeometry x="675" y="660" width="170" height="40" as="geometry" />
        </mxCell>
        <mxCell id="cmEz1sKrKSyV9okYz4DI-9" value="&lt;font style=&quot;font-size: 15px;&quot;&gt;spice-server-devel 0.12.8&lt;br&gt;&lt;/font&gt;" style="ellipse;whiteSpace=wrap;html=1;" vertex="1" parent="1">
          <mxGeometry x="280" y="290" width="160" height="100" as="geometry" />
        </mxCell>
        <mxCell id="cmEz1sKrKSyV9okYz4DI-13" value="" style="edgeStyle=elbowEdgeStyle;elbow=vertical;endArrow=classic;html=1;curved=0;rounded=0;endSize=8;startSize=8;exitX=0.5;exitY=1;exitDx=0;exitDy=0;entryX=0.25;entryY=0;entryDx=0;entryDy=0;" edge="1" parent="1" source="cmEz1sKrKSyV9okYz4DI-9">
          <mxGeometry width="50" height="50" relative="1" as="geometry">
            <mxPoint x="320" y="380" as="sourcePoint" />
            <mxPoint x="460" y="560" as="targetPoint" />
            <Array as="points">
              <mxPoint x="390" y="520" />
            </Array>
          </mxGeometry>
        </mxCell>
        <mxCell id="cmEz1sKrKSyV9okYz4DI-14" value="&lt;ul&gt;&lt;li&gt;spice_server_init&lt;/li&gt;&lt;li style=&quot;border-color: var(--border-color);&quot;&gt;spice_server_new&lt;/li&gt;&lt;li&gt;spice_server_set_tls&lt;/li&gt;&lt;li&gt;spice_server_set_port&lt;/li&gt;&lt;li&gt;spice_server_set_channel_security&lt;/li&gt;&lt;li&gt;struct SpiceServer&lt;/li&gt;&lt;li&gt;...&lt;/li&gt;&lt;/ul&gt;" style="text;strokeColor=none;fillColor=none;html=1;whiteSpace=wrap;verticalAlign=middle;overflow=hidden;" vertex="1" parent="1">
          <mxGeometry x="340" y="390" width="320" height="120" as="geometry" />
        </mxCell>
        <mxCell id="cmEz1sKrKSyV9okYz4DI-15" value="&lt;font style=&quot;font-size: 15px;&quot;&gt;gnutls-devel&lt;br&gt;&lt;/font&gt;" style="ellipse;whiteSpace=wrap;html=1;" vertex="1" parent="1">
          <mxGeometry x="800" y="290" width="160" height="100" as="geometry" />
        </mxCell>
        <mxCell id="cmEz1sKrKSyV9okYz4DI-16" value="" style="edgeStyle=elbowEdgeStyle;elbow=vertical;endArrow=classic;html=1;curved=0;rounded=0;endSize=8;startSize=8;exitX=0.5;exitY=1;exitDx=0;exitDy=0;entryX=0.75;entryY=0;entryDx=0;entryDy=0;" edge="1" parent="1" source="cmEz1sKrKSyV9okYz4DI-15" target="zF1l7xySwPQQmZNrOh1o-1">
          <mxGeometry width="50" height="50" relative="1" as="geometry">
            <mxPoint x="880" y="440" as="sourcePoint" />
            <mxPoint x="780" y="560" as="targetPoint" />
            <Array as="points">
              <mxPoint x="610" y="520" />
            </Array>
          </mxGeometry>
        </mxCell>
        <mxCell id="cmEz1sKrKSyV9okYz4DI-17" value="&lt;ul&gt;&lt;li&gt;gnutls_global_init&lt;/li&gt;&lt;li&gt;gnutls_x509_privkey_init&lt;/li&gt;&lt;li&gt;gnutls_x509_privkey_import&lt;/li&gt;&lt;li&gt;gnutls_dh_params_init&lt;/li&gt;&lt;li&gt;gnutls_dh_params_generate&lt;/li&gt;&lt;li&gt;gnutls_set_server_dh_params&lt;/li&gt;&lt;li&gt;struct gnutls_protocolt_t&lt;/li&gt;&lt;li&gt;...&lt;/li&gt;&lt;/ul&gt;" style="text;strokeColor=none;fillColor=none;html=1;whiteSpace=wrap;verticalAlign=middle;overflow=hidden;" vertex="1" parent="1">
          <mxGeometry x="670" y="390" width="240" height="140" as="geometry" />
        </mxCell>
      </root>
    </mxGraphModel>
  </diagram>
</mxfile>
